<mxfile host="65bd71144e">
    <diagram id="NLJQxjYtXDen66ugCwg5" name="第 1 页">
        <mxGraphModel dx="1031" dy="572" grid="1" gridSize="10" guides="1" tooltips="1" connect="1" arrows="1" fold="1" page="1" pageScale="1" pageWidth="827" pageHeight="1169" math="0" shadow="0">
            <root>
                <mxCell id="0"/>
                <mxCell id="1" parent="0"/>
                <mxCell id="2" style="edgeStyle=none;html=1;exitX=1;exitY=0.5;exitDx=0;exitDy=0;" edge="1" parent="1" source="3">
                    <mxGeometry relative="1" as="geometry">
                        <mxPoint x="240" y="404" as="targetPoint"/>
                    </mxGeometry>
                </mxCell>
                <mxCell id="3" value="学生" style="html=1;dashed=0;whitespace=wrap;" vertex="1" parent="1">
                    <mxGeometry x="100" y="381.87" width="70" height="43.75" as="geometry"/>
                </mxCell>
                <mxCell id="4" style="edgeStyle=none;html=1;exitX=1;exitY=0.5;exitDx=0;exitDy=0;" edge="1" parent="1" source="5">
                    <mxGeometry relative="1" as="geometry">
                        <mxPoint x="360" y="404" as="targetPoint"/>
                    </mxGeometry>
                </mxCell>
                <mxCell id="5" value="2.1&lt;br&gt;选课" style="shape=ellipse;html=1;dashed=0;whitespace=wrap;aspect=fixed;perimeter=ellipsePerimeter;" vertex="1" parent="1">
                    <mxGeometry x="240" y="370.62" width="66.25" height="66.25" as="geometry"/>
                </mxCell>
                <mxCell id="6" style="edgeStyle=none;html=1;exitX=0.5;exitY=0;exitDx=0;exitDy=0;" edge="1" parent="1" source="7">
                    <mxGeometry relative="1" as="geometry">
                        <mxPoint x="275" y="440" as="targetPoint"/>
                    </mxGeometry>
                </mxCell>
                <mxCell id="7" value="F3&lt;span style=&quot;white-space: pre;&quot;&gt;&#9;&lt;/span&gt;学生可选课程" style="html=1;dashed=0;whitespace=wrap;shape=mxgraph.dfd.dataStoreID;align=left;spacingLeft=3;points=[[0,0],[0.5,0],[1,0],[0,0.5],[1,0.5],[0,1],[0.5,1],[1,1]];" vertex="1" parent="1">
                    <mxGeometry x="219.69" y="480" width="110" height="30" as="geometry"/>
                </mxCell>
                <mxCell id="8" style="edgeStyle=none;html=1;exitX=0.5;exitY=1;exitDx=0;exitDy=0;" edge="1" parent="1" source="9">
                    <mxGeometry relative="1" as="geometry">
                        <mxPoint x="273.44000000000005" y="370.62" as="targetPoint"/>
                    </mxGeometry>
                </mxCell>
                <mxCell id="9" value="F4&lt;span style=&quot;white-space: pre;&quot;&gt;&#9;&lt;/span&gt;学生培养计划" style="html=1;dashed=0;whitespace=wrap;shape=mxgraph.dfd.dataStoreID;align=left;spacingLeft=3;points=[[0,0],[0.5,0],[1,0],[0,0.5],[1,0.5],[0,1],[0.5,1],[1,1]];" vertex="1" parent="1">
                    <mxGeometry x="219.69" y="310.62" width="106.87" height="30" as="geometry"/>
                </mxCell>
                <mxCell id="10" value="选课通知" style="text;html=1;align=center;verticalAlign=middle;resizable=0;points=[];autosize=1;strokeColor=none;fillColor=none;" vertex="1" parent="1">
                    <mxGeometry x="170" y="380" width="70" height="30" as="geometry"/>
                </mxCell>
                <mxCell id="11" value="学生选课信息" style="html=1;dashed=0;whitespace=wrap;shape=partialRectangle;right=0;left=0;" vertex="1" parent="1">
                    <mxGeometry x="364" y="388.75" width="100" height="30" as="geometry"/>
                </mxCell>
            </root>
        </mxGraphModel>
    </diagram>
</mxfile>